PathFileType	4	(X/Y/Z)	C:\Users\°ÂÌØÂü\Desktop\20201223\Trimmed_bx_y_0_501.trc
DataRate	CameraRate	NumFrames	NumMarkers	Units	OrigDataRate	OrigDataStartFrame	OrigNumFrames
50.00	50.00	      4	43	mm	50.00	817	      1306
Frame#	Time	Top.Head			R.Acromium			L.Acromium			Sternum			R.ASIS			L.ASIS			V.Sacral			R.Thigh.Upper			R.Thigh.Front			R.Thigh.Rear			R.Knee.Lat			R.Knee.Med			R.Shank.Upper			R.Shank.Front			R.Shank.Rear			R.Ankle.Lat			R.Midfoot.Lat			R.Toe.Lat			R.Toe.Tip			R.Toe.Med			R.Ankle.Med			R.Midfoot.Sup			R.Heel			L.Thigh.Upper			L.Thigh.Front			L.Thigh.Rear			L.Knee.Lat			L.Knee.Med			L.Shank.Upper			L.Shank.Front			L.Shank.Rear			L.Ankle.Lat			L.Midfoot.Lat			L.Toe.Lat			L.Toe.Tip			L.Toe.Med			L.Ankle.Med			L.Midfoot.Sup			L.Heel			origin1 front left			origin2 front right			origin 3 back right			origin 4 back leftt			
		X1	Y1	Z1	X2	Y2	Z2	X3	Y3	Z3	X4	Y4	Z4	X5	Y5	Z5	X6	Y6	Z6	X7	Y7	Z7	X8	Y8	Z8	X9	Y9	Z9	X10	Y10	Z10	X11	Y11	Z11	X12	Y12	Z12	X13	Y13	Z13	X14	Y14	Z14	X15	Y15	Z15	X16	Y16	Z16	X17	Y17	Z17	X18	Y18	Z18	X19	Y19	Z19	X20	Y20	Z20	X21	Y21	Z21	X22	Y22	Z22	X23	Y23	Z23	X24	Y24	Z24	X25	Y25	Z25	X26	Y26	Z26	X27	Y27	Z27	X28	Y28	Z28	X29	Y29	Z29	X30	Y30	Z30	X31	Y31	Z31	X32	Y32	Z32	X33	Y33	Z33	X34	Y34	Z34	X35	Y35	Z35	X36	Y36	Z36	X37	Y37	Z37	X38	Y38	Z38	X39	Y39	Z39	X40	Y40	Z40	X41	Y41	Z41	X42	Y42	Z42	X43	Y43	Z43	

817	16.320	-679.47437	252.76714	1831.60400	-605.74182	52.58712	1533.15820	-609.24823	448.48352	1513.31970	-511.73575	258.18591	1400.03369	-513.54028	143.81520	1055.36096	-512.16931	378.54807	1058.91077	-711.56824	240.47244	1052.00085	-550.94989	90.07805	890.88135	-505.20016	150.27182	840.50964	-604.14874	87.23269	747.78021	-644.07733	120.65949	597.29675	-621.53235	227.15730	558.00330	-676.21436	120.65913	541.83527	-593.13080	166.30276	540.31989	-716.13739	123.88557	475.68317	-686.26501	146.34952	214.96228	-615.92694	79.04868	167.90366	-571.08667	52.74670	162.64546	-491.89691	92.69269	160.92513	-531.04675	145.16920	163.38522	-631.84857	220.23491	218.75244	-591.22687	190.73843	167.93602	-716.70972	214.74603	170.47330	-553.47095	430.83081	881.90869	-504.74780	371.48566	834.47327	-599.38141	431.16190	747.91187	-647.05573	410.43634	626.16895	-605.95685	310.18619	570.71204	-656.19067	408.78067	562.44666	-600.77325	369.81534	535.91486	-706.71021	411.64987	511.07080	-678.51355	412.96918	212.97672	-585.29376	468.00980	164.79706	-547.17450	479.30612	160.58934	-487.89774	428.37152	169.27351	-524.51843	387.05655	177.96362	-642.29449	325.14084	206.37498	-593.13190	346.76590	168.25160	-732.29187	342.06180	164.50812	-443.75247	448.16336	147.98274	-450.10037	75.89520	143.89200	-806.34753	82.73843	142.52432	-799.24438	457.45313	145.12334	
818	16.340	-678.45044	252.65559	1831.69739	-605.11188	52.46626	1533.14819	-608.65906	448.36533	1513.42603	-511.25830	258.11551	1399.99756	-513.35382	143.83553	1055.32275	-511.86725	378.48743	1058.87549	-711.40112	240.47406	1052.04675	-550.90765	90.06192	890.80603	-505.10831	150.26456	840.37067	-604.15387	87.22717	747.80939	-644.14380	120.65483	597.32355	-621.59369	227.16267	557.97504	-676.20251	120.69494	541.86847	-593.13501	166.30974	540.33893	-716.13550	123.89722	475.67560	-686.24713	146.34909	214.97423	-615.92688	79.04709	167.89528	-571.06519	52.75720	162.63213	-491.88809	92.68233	160.90302	-531.03448	145.20358	163.34468	-631.85211	220.23425	218.75168	-591.20209	190.75044	167.90805	-716.68616	214.76503	170.48972	-553.35498	430.87180	881.89172	-504.61337	371.38583	834.37091	-599.28601	431.16281	747.92267	-647.05432	410.44101	626.18420	-605.86298	310.28571	570.66431	-656.09961	408.78839	562.41083	-600.74786	369.85001	535.91510	-706.60962	411.67276	511.02869	-678.46515	412.92447	212.92883	-585.28662	467.98276	164.80681	-547.17145	479.30670	160.58662	-487.87656	428.38849	169.25772	-524.49310	387.06601	177.97276	-642.21185	325.07867	206.35457	-593.11420	346.77023	168.25365	-732.30560	342.07013	164.51260	-443.75946	448.15494	147.98170	-450.09845	75.88741	143.88634	-806.35870	82.74399	142.53967	-799.26111	457.46088	145.09064	
819	16.360	-677.29675	252.50946	1831.80029	-604.39484	52.33252	1533.11951	-607.93341	448.22665	1513.50500	-510.75635	257.98737	1399.87292	-513.21442	143.86214	1055.27649	-511.66791	378.46637	1058.84680	-711.29034	240.44185	1052.13062	-550.94019	90.04719	890.73315	-505.08417	150.24690	840.23700	-604.28101	87.15333	747.89990	-644.32037	120.68349	597.35748	-621.87012	227.23299	557.90875	-676.22766	120.71115	541.91406	-593.17505	166.30856	540.37402	-716.15594	123.89713	475.65546	-686.23273	146.36801	214.99512	-615.93658	79.05222	167.90027	-571.05615	52.75232	162.62320	-491.87979	92.66777	160.88193	-531.05005	145.23334	163.32410	-631.85400	220.23372	218.75099	-591.17975	190.75484	167.91792	-716.67474	214.78934	170.50246	-553.31329	430.87378	881.86969	-504.56033	371.33704	834.28375	-599.29968	431.16791	747.94324	-647.08893	410.41635	626.16290	-605.80688	310.33331	570.65387	-656.08008	408.79413	562.36188	-600.75732	369.87918	535.92108	-706.58093	411.71683	511.03119	-678.46338	412.91696	212.92569	-585.30957	467.91458	164.90559	-547.17023	479.31158	160.59427	-487.83057	428.38870	169.23828	-524.48773	387.06927	177.98636	-642.09308	325.03293	206.46335	-593.09326	346.77817	168.28165	-732.29657	342.06216	164.49809	-443.76520	448.14954	147.97525	-450.09604	75.87742	143.87912	-806.35950	82.73127	142.56909	-799.25085	457.51175	145.03783	
820	16.380	-675.97644	252.30891	1831.92407	-603.58453	52.18817	1533.06531	-607.09961	448.07529	1513.55066	-510.24390	257.78925	1399.66150	-513.15076	143.88261	1055.21289	-511.57584	378.42627	1058.81250	-711.24200	240.40416	1052.24243	-551.02252	90.05949	890.65387	-505.16235	150.21552	840.14789	-604.51617	87.05388	748.00958	-644.58893	120.73373	597.38165	-622.21466	227.31038	557.82843	-676.29980	120.70396	541.94775	-593.27252	166.28851	540.40411	-716.20355	123.88321	475.63550	-686.22156	146.40572	215.00615	-615.93976	79.05226	167.91223	-571.07349	52.72423	162.64543	-491.87405	92.65741	160.86444	-531.07745	145.25444	163.31493	-631.85321	220.23349	218.75058	-591.18915	190.76373	167.90958	-716.67706	214.80936	170.51509	-553.35760	430.84036	881.83917	-504.61432	371.37430	834.21692	-599.44305	431.16687	747.96649	-647.11963	410.38815	626.12207	-605.83667	310.31610	570.71228	-656.14093	408.80032	562.33441	-600.79639	369.90952	535.92322	-706.63440	411.79514	511.05322	-678.49011	412.94476	212.96783	-585.38129	467.82205	165.12068	-547.17065	479.32379	160.60919	-487.76443	428.35202	169.22624	-524.48688	387.06409	177.98116	-642.02728	325.04907	206.60352	-593.08105	346.78119	168.31259	-732.27008	342.04932	164.47989	-443.76297	448.14609	147.96706	-450.09531	75.87624	143.87854	-806.33728	82.70206	142.60085	-799.21613	457.58701	144.96964	
